# xmcd
#
# Track frame offsets:
#	150
#	18930
#	39462
#	59855
#	83900
#
# Disc length: 1485 seconds
#
# Revision: 1
# Processed by: cddbd v1.5.2PL0 Copyright (c) Steve Scherf et al.
# Submitted via: audiograbber 1.83.01
#
DISCID=3b05cb05
DTITLE=Bryan Ferry - Will You Love Me Tomorrow
DYEAR=1993
DGENRE=Blues
TTITLE0=Will You Love Me Tomorrow (Single Mix)
TTITLE1=Crazy Love
TTITLE2=Feel The Need
TTITLE3=A Hard Rain's A-Gonna Fall
TTITLE4=Will You Love Me Tomorrow (Long Version)
EXTD=
EXTT0=
EXTT1=
EXTT2=
EXTT3=
EXTT4=
PLAYORDER=
